<svg width="927" height="417" viewBox="0 0 927 417" fill="none" xmlns="http://www.w3.org/2000/svg">
<g opacity="0.2" clip-path="url(#clip0_1246_134)">
<path d="M25.5478 287.136C34.8614 268.167 52.0048 253.167 74.0142 247.27C114.464 236.431 156.044 260.438 166.883 300.887C177.721 341.337 153.715 382.917 113.265 393.756C72.8154 404.594 31.2351 380.588 20.3966 340.138C15.4556 321.698 17.7532 303.025 25.5478 287.136Z" fill="#D9E8C9"/>
<path d="M70.7758 316.006L60.2128 311.124L52.2971 320.958" stroke="#5F6614" stroke-width="4" stroke-linecap="round" stroke-linejoin="round"/>
<path d="M126.173 301.163L115.61 296.28L107.714 306.109" stroke="#5F6614" stroke-width="4" stroke-linecap="round" stroke-linejoin="round"/>
<path d="M73.2596 345.923C73.2596 345.923 101.788 363.205 120.502 333.264" stroke="#5F6614" stroke-width="4" stroke-linecap="round" stroke-linejoin="round"/>
</g>
<g opacity="0.3" clip-path="url(#clip1_1246_134)">
<path d="M848.401 7.09093C862.795 0.971879 879.679 0.754891 894.942 7.90101C922.978 21.0071 934.882 53.9602 921.534 81.4887C908.186 109.017 874.625 120.706 846.589 107.6C818.552 94.479 806.648 61.5403 819.996 34.0118C826.081 21.4555 836.364 12.1974 848.401 7.09093Z" fill="#D9E8C9"/>
<path d="M864.887 48.8248C862.706 53.3381 858.08 55.6527 854.559 54.0036C851.038 52.3545 849.963 47.3782 852.143 42.8649C854.323 38.3515 858.95 36.037 862.471 37.6861C865.992 39.3352 867.067 44.3259 864.887 48.8248Z" fill="#242424"/>
<path d="M894.485 62.6542C892.304 67.1675 887.678 69.482 884.157 67.8329C880.636 66.1838 879.561 61.1931 881.741 56.6942C883.922 52.1809 888.548 49.8664 892.069 51.5155C895.59 53.1646 896.665 58.1553 894.485 62.6542Z" fill="#242424"/>
<path d="M858.846 42.4888C858.169 43.9064 855.222 43.9354 852.29 42.5611C849.344 41.1869 847.532 38.9302 848.209 37.5126C848.887 36.0949 851.834 36.066 854.765 37.4402C857.697 38.8145 859.524 41.0711 858.846 42.4888Z" fill="#D9E8C9"/>
<path d="M888.002 56.13C887.325 57.5477 884.378 57.5766 881.446 56.2024C878.5 54.8281 876.688 52.5714 877.365 51.1538C878.043 49.7361 880.99 49.7072 883.922 51.0815C886.853 52.4557 888.68 54.7124 888.002 56.13Z" fill="#D9E8C9"/>
<path d="M860.364 65.0266C860.364 65.0266 862.795 73.9086 872.342 70.6249" stroke="#242424" stroke-width="3" stroke-linecap="round" stroke-linejoin="round"/>
</g>
<defs>
<clipPath id="clip0_1246_134">
<rect width="154.613" height="157.593" fill="white" transform="translate(0 264.017) rotate(-15)"/>
</clipPath>
<clipPath id="clip1_1246_134">
<rect width="113" height="114.786" fill="white" transform="translate(814 0.349854)"/>
</clipPath>
</defs>
</svg>
