<svg width="113" height="116" viewBox="0 0 113 116" fill="none" xmlns="http://www.w3.org/2000/svg">
<g opacity="0.3" clip-path="url(#clip0_917_6094)">
<path d="M34.4009 7.09093C48.7948 0.971879 65.6785 0.754891 80.9416 7.90101C108.978 21.0071 120.882 53.9602 107.534 81.4887C94.1863 109.017 60.6252 120.706 32.5888 107.6C4.55242 94.479 -7.35162 61.5403 5.99623 34.0118C12.0808 21.4555 22.3643 12.1974 34.4009 7.09093Z" fill="#D9E8C9"/>
<path d="M50.8868 48.8248C48.7064 53.3381 44.0803 55.6527 40.5592 54.0036C37.0381 52.3545 35.9626 47.3782 38.143 42.8649C40.3235 38.3515 44.9496 36.037 48.4707 37.6861C51.9918 39.3352 53.0673 44.3259 50.8868 48.8248Z" fill="#242424"/>
<path d="M80.4849 62.6542C78.3045 67.1675 73.6784 69.482 70.1573 67.8329C66.6361 66.1838 65.5606 61.1931 67.7411 56.6942C69.9215 52.1809 74.5476 49.8664 78.0687 51.5155C81.5899 53.1646 82.6653 58.1553 80.4849 62.6542Z" fill="#242424"/>
<path d="M44.8464 42.4888C44.1687 43.9064 41.2222 43.9354 38.2904 42.5611C35.3438 41.1869 33.5317 38.9302 34.2094 37.5126C34.8871 36.0949 37.8337 36.066 40.7655 37.4402C43.6973 38.8145 45.5241 41.0711 44.8464 42.4888Z" fill="#D9E8C9"/>
<path d="M74.0025 56.13C73.3248 57.5477 70.3782 57.5766 67.4464 56.2024C64.4999 54.8281 62.6877 52.5714 63.3655 51.1538C64.0432 49.7361 66.9897 49.7072 69.9215 51.0815C72.8533 52.4557 74.6802 54.7124 74.0025 56.13Z" fill="#D9E8C9"/>
<path d="M46.3639 65.0266C46.3639 65.0266 48.7948 73.9086 58.3416 70.6249" stroke="#242424" stroke-width="3" stroke-linecap="round" stroke-linejoin="round"/>
</g>
<defs>
<clipPath id="clip0_917_6094">
<rect width="113" height="114.786" fill="white" transform="translate(0 0.349854)"/>
</clipPath>
</defs>
</svg>
