<svg width="84" height="84" viewBox="0 0 84 84" fill="none" xmlns="http://www.w3.org/2000/svg">
<path d="M42 82C64.0914 82 82 64.0914 82 42C82 19.9086 64.0914 2 42 2C19.9086 2 2 19.9086 2 42C2 64.0914 19.9086 82 42 82Z" stroke="#5F6614" stroke-width="2" stroke-miterlimit="10"/>
<path d="M42 70C57.464 70 70 57.464 70 42C70 26.536 57.464 14 42 14C26.536 14 14 26.536 14 42C14 57.464 26.536 70 42 70Z" stroke="#5F6614" stroke-width="2" stroke-miterlimit="10"/>
<path d="M11.5702 39.2608C11.6712 39.5557 11.7132 39.849 11.693 40.1406C11.6611 40.6014 11.5534 41.0103 11.3666 41.3672C11.1815 41.7242 10.9375 42.0191 10.6379 42.2537C10.3384 42.4866 9.9934 42.6592 9.60299 42.7681C9.21258 42.8771 8.79861 42.9173 8.35772 42.8871C7.90673 42.857 7.49275 42.7614 7.11412 42.5989C6.73717 42.438 6.41239 42.2219 6.14314 41.9487C5.87221 41.6756 5.66859 41.3505 5.52892 40.9717C5.39093 40.593 5.33708 40.1724 5.36905 39.7116C5.39093 39.4032 5.45656 39.1066 5.56931 38.8234C5.68205 38.5402 5.83687 38.2889 6.03376 38.0677C6.23065 37.8465 6.46624 37.6688 6.74222 37.5365C7.0182 37.4024 7.32952 37.3303 7.6745 37.3203L7.58867 38.5838C7.24538 38.6391 6.98118 38.7732 6.79607 38.9877C6.61096 39.2005 6.50831 39.4669 6.48644 39.7887C6.46624 40.0869 6.50663 40.3433 6.6076 40.5595C6.70857 40.7757 6.85329 40.955 7.0384 41.0974C7.22519 41.2399 7.4389 41.3488 7.68291 41.4242C7.92692 41.4996 8.18102 41.5465 8.44691 41.565C8.70101 41.5817 8.95007 41.57 9.19407 41.5264C9.43808 41.4845 9.66021 41.4041 9.86046 41.2885C10.0607 41.1728 10.2256 41.0136 10.3569 40.8142C10.4865 40.6148 10.5622 40.3651 10.5824 40.0668C10.6127 39.6278 10.5252 39.2826 10.3182 39.0279C10.1112 38.7748 9.7982 38.6123 9.3775 38.5453L9.28663 39.8775L8.29714 39.8104L8.47046 37.2817L11.7368 37.5029L11.6796 38.3458L10.9846 38.4347C11.2723 38.691 11.4675 38.9659 11.5702 39.2608Z" fill="#5F6614"/>
<path d="M7.75196 35.6361C7.4154 35.4015 7.14278 35.125 6.93243 34.8033C6.72376 34.4815 6.58914 34.1212 6.53024 33.7224C6.47134 33.3236 6.505 32.9013 6.62953 32.4572C6.75574 32.0064 6.94758 31.6277 7.20336 31.3177C7.46083 31.0094 7.76205 30.7714 8.10703 30.6038C8.45369 30.4363 8.83064 30.3408 9.24124 30.3139C9.65016 30.2871 10.0742 30.3341 10.5084 30.4564C10.9341 30.5737 11.3111 30.7496 11.6426 30.9809C11.9741 31.2121 12.2417 31.4886 12.4453 31.8087C12.6489 32.1288 12.7802 32.4857 12.8357 32.8812C12.8929 33.2767 12.8576 33.7006 12.7314 34.1497C12.6069 34.5955 12.4167 34.9725 12.1626 35.2859C11.9085 35.5976 11.6106 35.8389 11.269 36.0065C10.9291 36.174 10.5555 36.2729 10.1516 36.3014C9.74777 36.3299 9.33211 36.2846 8.90805 36.1673C8.47557 36.0467 8.08852 35.8691 7.75196 35.6361ZM10.0069 35.0027C10.2543 35.0094 10.4882 34.9776 10.7086 34.9038C10.9291 34.8301 11.1226 34.7094 11.2909 34.5402C11.4592 34.3709 11.5837 34.1414 11.6628 33.8548C11.7436 33.5682 11.7554 33.3068 11.6998 33.0756C11.6443 32.8443 11.5416 32.6399 11.3919 32.4639C11.2421 32.288 11.0587 32.1388 10.8433 32.0182C10.6279 31.8975 10.3973 31.802 10.1516 31.735C9.89585 31.6629 9.64006 31.6244 9.38428 31.6143C9.12849 31.6043 8.88954 31.6361 8.66572 31.7082C8.44359 31.7802 8.2467 31.9026 8.0801 32.0718C7.91182 32.2411 7.7873 32.4706 7.7082 32.7572C7.62743 33.0454 7.61565 33.3052 7.67118 33.5364C7.72672 33.7677 7.83105 33.9721 7.98418 34.1497C8.13732 34.3274 8.32579 34.4765 8.54961 34.6005C8.77342 34.7245 9.01406 34.8217 9.26985 34.8921C9.51386 34.9591 9.75955 34.996 10.0069 35.0027Z" fill="#5F6614"/>
<path d="M9.84023 28.7958C9.5592 28.4992 9.34717 28.1707 9.20918 27.8138C9.06951 27.4569 9.01229 27.0765 9.03753 26.6743C9.06109 26.2721 9.18057 25.8649 9.39429 25.456C9.60969 25.0404 9.87557 24.7086 10.1903 24.4573C10.5049 24.2059 10.8482 24.035 11.2218 23.9428C11.5954 23.8506 11.9841 23.8322 12.3914 23.8892C12.7986 23.9462 13.2025 24.0785 13.603 24.2863C13.9951 24.4874 14.3283 24.7371 14.6059 25.0321C14.8819 25.327 15.0872 25.6521 15.2218 26.0057C15.3565 26.3592 15.4103 26.7363 15.3851 27.1351C15.3598 27.5339 15.2387 27.9412 15.0233 28.3567C14.8096 28.7673 14.547 29.0991 14.234 29.3521C13.921 29.6052 13.5794 29.7811 13.2126 29.8766C12.844 29.9722 12.4604 29.9923 12.0582 29.9386C11.6577 29.8833 11.2605 29.756 10.8684 29.5532C10.4646 29.3454 10.1229 29.0924 9.84023 28.7958ZM12.1777 28.6349C12.4183 28.6919 12.6539 28.7086 12.8844 28.6802C13.115 28.6517 13.3304 28.5729 13.5289 28.4422C13.7275 28.3098 13.8958 28.1121 14.0338 27.8473C14.1718 27.5825 14.2374 27.3312 14.2307 27.0932C14.2239 26.8553 14.165 26.6341 14.054 26.4313C13.9429 26.2285 13.7948 26.0459 13.608 25.8833C13.4212 25.7208 13.2159 25.5817 12.9904 25.4644C12.7549 25.3421 12.5125 25.2516 12.2635 25.1896C12.0144 25.1276 11.7738 25.1108 11.5415 25.1359C11.3093 25.1611 11.0922 25.2398 10.8937 25.3722C10.6951 25.5046 10.5268 25.7024 10.3888 25.9671C10.2508 26.2319 10.1852 26.4833 10.1919 26.7212C10.1987 26.9592 10.2593 27.1804 10.372 27.3848C10.4847 27.5892 10.6396 27.7753 10.8331 27.9412C11.0266 28.1071 11.242 28.2512 11.4776 28.3735C11.7048 28.4908 11.937 28.5779 12.1777 28.6349Z" fill="#5F6614"/>
<path d="M13.5879 19.3362C13.8336 19.0345 14.1096 18.7916 14.4193 18.6089C14.7272 18.4262 15.0554 18.3173 15.4037 18.2838C15.752 18.2486 16.1155 18.2955 16.4925 18.4212C16.8694 18.5486 17.2548 18.7681 17.6452 19.0831C17.9885 19.3596 18.2695 19.6579 18.4883 19.9797C18.707 20.3014 18.8501 20.6349 18.9174 20.9818C18.9847 21.3286 18.9712 21.6839 18.877 22.0459C18.7828 22.4078 18.5893 22.7681 18.2981 23.1284L16.6557 25.151L11.9438 21.3588L13.5879 19.3362ZM17.3675 22.5C17.4887 22.3509 17.5813 22.1866 17.6469 22.0073C17.7125 21.828 17.7327 21.6387 17.7108 21.4392C17.6873 21.2398 17.6132 21.0337 17.4853 20.8226C17.3574 20.6114 17.1656 20.402 16.9064 20.1925C16.6692 20.0014 16.4353 19.8523 16.2064 19.7434C15.9775 19.6361 15.752 19.5792 15.5316 19.5741C15.3095 19.5691 15.0924 19.6244 14.8803 19.7384C14.6666 19.8523 14.458 20.0366 14.251 20.2914L13.6536 21.027L16.622 23.4183L17.3675 22.5Z" fill="#5F6614"/>
<path d="M20.2535 12.97L23.7638 15.611L23.7773 15.6009L22.5488 11.4199L24.1004 10.3726L27.5013 15.3646L26.4698 16.0617L24.06 12.5225L24.0465 12.5326L25.2279 16.8996L24.378 17.4727L20.7634 14.7999L20.7499 14.8099L23.1361 18.3123L22.1046 19.0094L18.7036 14.019L20.2535 12.97Z" fill="#5F6614"/>
<path d="M28.8375 8.31482L33.2195 13.0505L31.9389 13.57L31.0066 12.4975L28.9082 13.3488L28.9772 14.7715L27.7353 15.2742L27.572 8.8276L28.8375 8.31482ZM30.31 11.7116L28.7651 9.94868L28.75 9.95538L28.8577 12.3014L30.31 11.7116Z" fill="#5F6614"/>
<path d="M33.6014 6.8367L36.8745 10.3139L36.8913 10.3105L36.0987 6.34235L37.3221 6.09937L38.5034 12.0148L37.1976 12.2728L33.9363 8.80235L33.9195 8.8057L34.7104 12.7655L33.487 13.0085L32.3057 7.09309L33.6014 6.8367Z" fill="#5F6614"/>
<path d="M43.8481 11.4769C43.3887 11.8723 42.756 12.0701 41.9465 12.0684C41.1253 12.0667 40.4926 11.869 40.0433 11.4735C39.594 11.078 39.3702 10.4697 39.3718 9.64694L39.3786 5.89661L40.7114 5.89828L40.7046 9.64861C40.7046 9.81284 40.7181 9.97203 40.7467 10.1296C40.7753 10.2871 40.8342 10.4262 40.9234 10.5485C41.0126 10.6691 41.1388 10.768 41.3003 10.8451C41.4619 10.9222 41.6773 10.959 41.9499 10.9607C42.4244 10.9624 42.7526 10.8568 42.9343 10.6457C43.1161 10.4345 43.207 10.1044 43.207 9.65364L43.2137 5.90331L44.5448 5.90499L44.5381 9.65531C44.5364 10.4748 44.3075 11.0814 43.8481 11.4769Z" fill="#5F6614"/>
<path d="M50.6954 6.89871L50.4951 7.99632L47.6158 7.47684L47.3668 8.84928L49.8624 9.30006L49.6773 10.3139L47.1817 9.86311L46.7357 12.3147L45.4248 12.0785L46.5035 6.14294L50.6954 6.89871Z" fill="#5F6614"/>
<path d="M54.5407 8.14378L54.6972 14.582L53.3913 14.1312L53.3997 12.7136L51.2609 11.9745L50.3707 13.0889L49.1035 12.6516L53.2516 7.69971L54.5407 8.14378ZM53.3964 11.6645L53.4031 9.32518L53.3879 9.32016L51.9138 11.1534L53.3964 11.6645Z" fill="#5F6614"/>
<path d="M60.5028 12.8208C60.4978 12.6716 60.4675 12.5259 60.4136 12.3834C60.3581 12.241 60.279 12.1103 60.1764 11.9896C60.072 11.869 59.9509 11.7684 59.8078 11.6863C59.5487 11.5372 59.2979 11.4618 59.059 11.4567C58.82 11.4534 58.5945 11.502 58.3859 11.6059C58.1755 11.7098 57.982 11.8539 57.807 12.0399C57.6303 12.2259 57.4771 12.432 57.3442 12.6616C57.218 12.8811 57.1187 13.109 57.0514 13.347C56.9841 13.5849 56.9572 13.8179 56.974 14.0474C56.9908 14.2787 57.0615 14.4949 57.1843 14.6993C57.3072 14.9037 57.499 15.0797 57.7599 15.2288C58.1132 15.4316 58.4498 15.4819 58.7729 15.3813C59.096 15.2808 59.3804 15.0663 59.6278 14.7412L60.7452 15.3813C60.5264 15.6913 60.279 15.9427 60.0047 16.1371C59.7304 16.3298 59.4393 16.4622 59.1297 16.5326C58.8217 16.603 58.5037 16.6097 58.1789 16.5527C57.8541 16.4957 57.5293 16.3751 57.2045 16.189C56.8023 15.9578 56.4809 15.6813 56.2403 15.3579C55.9996 15.0345 55.8398 14.6876 55.7607 14.3172C55.6816 13.9469 55.6782 13.5631 55.7506 13.166C55.8246 12.7688 55.971 12.3801 56.1898 11.9997C56.4153 11.6092 56.6845 11.2808 56.9942 11.0143C57.3055 10.7479 57.6421 10.5535 58.0072 10.4312C58.3707 10.3088 58.7544 10.2686 59.1583 10.3122C59.5605 10.3541 59.9627 10.4915 60.3648 10.7211C60.6543 10.887 60.9033 11.0847 61.112 11.316C61.3207 11.5472 61.4822 11.8003 61.5933 12.0751C61.7044 12.3499 61.7582 12.6432 61.7565 12.9532C61.7532 13.2632 61.6808 13.5799 61.5411 13.9016L60.4237 13.2615C60.481 13.1157 60.5079 12.9699 60.5028 12.8208Z" fill="#5F6614"/>
<path d="M62.9026 13.7727L63.6262 12.9214L67.4125 16.1154L66.6889 16.9666L65.3039 15.7987L62.1133 19.5507L61.0969 18.6943L64.2875 14.9423L62.9026 13.7727Z" fill="#5F6614"/>
<path d="M66.9985 24.1673C66.3994 24.0668 65.8441 23.7048 65.3308 23.0814C64.8108 22.4497 64.5618 21.8364 64.5819 21.2398C64.6021 20.6432 64.932 20.0852 65.5714 19.564L68.4844 17.1862L69.3291 18.2117L66.4179 20.5896C66.29 20.6935 66.1756 20.8058 66.0712 20.9281C65.9669 21.0504 65.8962 21.1845 65.8592 21.3303C65.8222 21.4761 65.8255 21.6353 65.8693 21.8079C65.9131 21.9805 66.0207 22.1715 66.1924 22.3793C66.4936 22.7446 66.7831 22.9306 67.0624 22.9357C67.3417 22.9407 67.6548 22.8016 68.0048 22.515L70.9177 20.1372L71.7625 21.1627L68.8495 23.5406C68.2134 24.0601 67.5958 24.2679 66.9985 24.1673Z" fill="#5F6614"/>
<path d="M74.4027 25.6504C74.5339 25.8866 74.6147 26.1212 74.6433 26.3525C74.6719 26.5854 74.6568 26.8049 74.5979 27.0144C74.539 27.2239 74.4431 27.4116 74.3068 27.5808C74.1705 27.7484 74.0005 27.8892 73.7986 28.0014C73.4872 28.1724 73.181 28.2561 72.8798 28.2511C72.5802 28.2461 72.2874 28.1288 72.0047 27.8975L71.9896 27.9059C72.0299 28.0701 72.035 28.2226 72.0047 28.3617C71.9744 28.5008 71.9206 28.6298 71.8431 28.7505C71.7641 28.8711 71.6665 28.9817 71.547 29.0823C71.4292 29.1828 71.3046 29.275 71.1768 29.3588C71.096 29.4107 71.0001 29.4694 70.889 29.5364C70.7779 29.6035 70.6652 29.6772 70.5541 29.7543C70.4414 29.8314 70.3404 29.9135 70.2495 29.9989C70.157 30.0844 70.0897 30.1749 70.0459 30.2704L69.4014 29.1108C69.5343 28.9533 69.7127 28.8041 69.9365 28.6617C70.1603 28.5192 70.3724 28.3734 70.5676 28.2277C70.8234 28.0349 70.9799 27.8406 71.0371 27.6411C71.0943 27.4417 71.0421 27.1971 70.8806 26.9055L70.2361 25.7442L68.1645 26.8854L67.52 25.7241L72.8192 22.8049L74.4027 25.6504ZM71.7741 26.5569C71.9222 26.8234 72.0922 26.9893 72.284 27.058C72.4776 27.125 72.7064 27.0865 72.974 26.939C73.2315 26.7966 73.3812 26.6273 73.4233 26.4313C73.4654 26.2335 73.4132 26.0023 73.2651 25.7358L72.5583 24.4639L71.0657 25.285L71.7741 26.5569Z" fill="#5F6614"/>
<path d="M76.333 30.123L70.6636 32.2445L70.1958 31.0027L75.8652 28.8812L76.333 30.123Z" fill="#5F6614"/>
<path d="M77.2685 33.1041L73.8575 36.4472L73.8608 36.4639L77.8255 35.5775L78.0981 36.789L72.1881 38.1095L71.8953 36.8158L75.2996 33.4845L75.2963 33.4677L71.34 34.3525L71.0674 33.1409L76.9774 31.8204L77.2685 33.1041Z" fill="#5F6614"/>
<path d="M72.4221 42.5604C72.2942 42.2755 72.2286 41.9873 72.2219 41.694C72.2118 41.2332 72.2841 40.8159 72.439 40.4439C72.5921 40.0719 72.8075 39.7569 73.0852 39.4971C73.3628 39.2374 73.691 39.038 74.0696 38.8938C74.4482 38.7514 74.8588 38.676 75.2997 38.6659C75.7524 38.6576 76.1731 38.7162 76.5635 38.8436C76.9539 38.9709 77.2955 39.1586 77.59 39.4066C77.8828 39.6546 78.1167 39.9613 78.2867 40.3266C78.4584 40.6919 78.5492 41.1058 78.5576 41.5683C78.5644 41.8784 78.524 42.1783 78.4365 42.4699C78.349 42.7615 78.216 43.0262 78.041 43.2642C77.8643 43.5022 77.6456 43.6982 77.383 43.8557C77.1205 44.0133 76.8176 44.1121 76.4726 44.1524L76.4474 42.8855C76.7856 42.8 77.0364 42.6425 77.2013 42.4146C77.3662 42.1867 77.4453 41.9119 77.4386 41.5901C77.4318 41.2918 77.3696 41.0388 77.2501 40.8327C77.1306 40.6266 76.9708 40.4607 76.7739 40.335C76.5753 40.2093 76.3515 40.1188 76.1024 40.0652C75.8534 40.0116 75.5942 39.9864 75.3283 39.9915C75.0742 39.9965 74.8269 40.0317 74.5879 40.0954C74.3489 40.159 74.1352 40.2579 73.9451 40.392C73.7549 40.526 73.6051 40.697 73.4924 40.9081C73.3813 41.1192 73.3275 41.374 73.3342 41.6722C73.3426 42.1113 73.4621 42.4481 73.6893 42.6827C73.9181 42.9173 74.2446 43.0497 74.6687 43.0815L74.6418 41.7476L75.6329 41.7275L75.6851 44.2613L72.412 44.3266L72.3952 43.4821L73.0801 43.3329C72.7688 43.1033 72.55 42.8453 72.4221 42.5604Z" fill="#5F6614"/>
<path d="M26.1382 68.6099C26.4461 68.8043 26.68 69.0138 26.8399 69.2384C26.9998 69.4629 27.1007 69.6925 27.1428 69.9237C27.1849 70.1567 27.1782 70.3862 27.1209 70.6125C27.0637 70.8404 26.9712 71.0532 26.8433 71.256C26.7187 71.4537 26.5639 71.628 26.3822 71.7788C26.1988 71.9296 25.9935 72.0352 25.7646 72.0972C25.5357 72.1592 25.285 72.1659 25.0124 72.119C24.7398 72.072 24.4486 71.9514 24.1407 71.7587L23.0014 71.0431L21.8857 72.8027L20.802 72.1206L23.9135 67.2107L26.1382 68.6099ZM24.3763 70.7348C24.5008 70.8136 24.627 70.8789 24.7532 70.9325C24.8794 70.9862 25.004 71.0146 25.1251 71.0163C25.2463 71.018 25.3641 70.9878 25.4768 70.9258C25.5913 70.8622 25.6973 70.7532 25.7966 70.5974C25.8959 70.4415 25.948 70.2991 25.9564 70.1684C25.9648 70.0394 25.9413 69.9204 25.8874 69.8131C25.8336 69.7059 25.7545 69.607 25.6518 69.5149C25.5492 69.4244 25.4348 69.3406 25.3102 69.2618L24.4672 68.7323L23.5349 70.2036L24.3763 70.7348Z" fill="#5F6614"/>
<path d="M31.2034 71.0799C31.4458 71.1771 31.6477 71.3045 31.8109 71.462C31.9725 71.6179 32.0953 71.7921 32.1795 71.9848C32.2636 72.1759 32.304 72.377 32.304 72.5848C32.304 72.7926 32.2619 73.0003 32.1778 73.2048C32.0482 73.5215 31.8698 73.7678 31.6426 73.9438C31.4138 74.1214 31.1243 74.2086 30.7726 74.2069L30.7659 74.222C30.8955 74.3208 30.9914 74.4314 31.0537 74.5538C31.1159 74.6761 31.1529 74.8051 31.1681 74.9425C31.1832 75.08 31.1765 75.2224 31.1479 75.3699C31.1193 75.5157 31.0839 75.6598 31.0385 75.7989C31.0082 75.886 30.9729 75.9882 30.9308 76.1072C30.8887 76.2245 30.85 76.3468 30.813 76.4725C30.776 76.5982 30.7491 76.7205 30.7339 76.8395C30.7171 76.9585 30.7221 77.0674 30.7457 77.1646L29.5576 76.6836C29.561 76.4859 29.6048 76.2664 29.6855 76.0251C29.7663 75.7838 29.837 75.5475 29.8942 75.3196C29.9683 75.0213 29.9666 74.7817 29.8892 74.5973C29.8118 74.413 29.6233 74.2622 29.3254 74.1415L28.1374 73.6606L27.2791 75.762L26.0911 75.281L28.2871 69.9036L31.2034 71.0799ZM29.7865 73.3422C30.0591 73.4528 30.288 73.4746 30.4731 73.4092C30.6582 73.3439 30.8063 73.1763 30.9174 72.9048C31.0234 72.6434 31.0335 72.4272 30.946 72.253C30.8585 72.0804 30.6784 71.9379 30.4058 71.8273L29.105 71.3011L28.4857 72.8143L29.7865 73.3422Z" fill="#5F6614"/>
<path d="M36.4671 72.5546L37.3068 78.6962L36.0094 78.4029L35.8664 77.0456L33.7393 76.5663L33.0073 77.7259L31.7485 77.4427L35.1848 72.2646L36.4671 72.5546ZM35.7486 76.0435L35.5046 73.8047L35.4877 73.8013L34.2744 75.7117L35.7486 76.0435Z" fill="#5F6614"/>
<path d="M42.3553 74.6275C42.283 74.5035 42.1904 74.3929 42.0793 74.2974C41.9683 74.2019 41.8404 74.1265 41.699 74.0695C41.556 74.0142 41.4062 73.9824 41.248 73.9773C40.9603 73.969 40.7129 74.0159 40.5076 74.1214C40.3023 74.227 40.134 74.3695 40.0044 74.5538C39.8732 74.7364 39.7756 74.9459 39.7099 75.1839C39.646 75.4202 39.609 75.6665 39.6006 75.9212C39.5921 76.1642 39.614 76.4021 39.6645 76.6351C39.715 76.868 39.7991 77.0775 39.9186 77.2652C40.0381 77.4528 40.1963 77.607 40.3948 77.7243C40.5917 77.8416 40.8357 77.9053 41.1235 77.9137C41.5156 77.9254 41.8252 77.8165 42.0524 77.5852C42.2796 77.354 42.4243 77.044 42.4866 76.6552L43.7268 76.6937C43.683 77.0557 43.5871 77.3808 43.4424 77.669C43.2977 77.9572 43.1092 78.2002 42.8803 78.3996C42.6515 78.5991 42.3839 78.7482 42.0827 78.8471C41.7798 78.9459 41.45 78.9895 41.0898 78.9794C40.6439 78.966 40.2451 78.8756 39.8934 78.7097C39.5417 78.5438 39.2472 78.3226 39.0116 78.0427C38.776 77.7645 38.5976 77.4394 38.4781 77.0708C38.3586 76.7004 38.3065 76.305 38.3199 75.8827C38.3334 75.4486 38.4108 75.0498 38.5539 74.6812C38.6969 74.3142 38.8938 73.9958 39.1479 73.7276C39.402 73.4595 39.7083 73.2517 40.0701 73.1059C40.4319 72.9602 40.8357 72.8948 41.2817 72.9082C41.6031 72.9183 41.9043 72.9736 42.187 73.0741C42.4697 73.1746 42.7222 73.3171 42.9426 73.4997C43.1631 73.6824 43.3414 73.907 43.4811 74.1717C43.6208 74.4365 43.7032 74.7364 43.7302 75.0749L42.4899 75.0364C42.4714 74.8873 42.4277 74.7515 42.3553 74.6275Z" fill="#5F6614"/>
<path d="M44.1139 74.1516L43.9624 73.0892L48.6928 72.4222L48.8442 73.4847L47.1143 73.7293L47.7807 78.4147L46.5119 78.594L45.8455 73.9086L44.1139 74.1516Z" fill="#5F6614"/>
<path d="M50.3943 71.9027L51.8735 77.5182L50.6332 77.8416L49.1541 72.2261L50.3943 71.9027Z" fill="#5F6614"/>
<path d="M55.3518 71.7501C55.234 71.6663 55.1061 71.6027 54.9647 71.5608C54.8234 71.5189 54.677 71.5004 54.5238 71.5071C54.3707 71.5138 54.2209 71.5474 54.0745 71.606C53.8086 71.7149 53.6017 71.859 53.4586 72.0367C53.3139 72.216 53.2197 72.4154 53.1759 72.6349C53.1322 72.8544 53.1271 73.0857 53.1658 73.3287C53.2028 73.5717 53.2718 73.8096 53.3678 74.0459C53.4603 74.2721 53.5781 74.4799 53.7178 74.6726C53.8591 74.8637 54.0207 75.0212 54.2075 75.1452C54.3943 75.2692 54.6012 75.3446 54.8301 75.3714C55.059 75.3982 55.3063 75.358 55.5739 75.2491C55.9374 75.1016 56.1747 74.8754 56.2874 74.5721C56.4002 74.2688 56.4069 73.9269 56.3026 73.5465L57.4519 73.079C57.5596 73.4275 57.6067 73.7627 57.5916 74.0844C57.5764 74.4062 57.5058 74.7045 57.3779 74.9793C57.25 75.2541 57.0666 75.4988 56.831 75.7116C56.5954 75.9244 56.311 76.0987 55.9778 76.2344C55.5638 76.402 55.1633 76.4824 54.7746 76.4741C54.3858 76.4657 54.0257 76.3819 53.6959 76.2227C53.3661 76.0635 53.0716 75.8406 52.8107 75.5507C52.5499 75.2608 52.3396 74.9206 52.1797 74.5302C52.0148 74.128 51.9222 73.7309 51.902 73.3387C51.8818 72.9466 51.9323 72.5746 52.0552 72.2277C52.1763 71.8792 52.3732 71.5658 52.6425 71.2859C52.9134 71.0061 53.255 70.7815 53.6673 70.614C53.9651 70.4933 54.263 70.4213 54.5625 70.3978C54.8621 70.376 55.1498 70.4028 55.4258 70.4816C55.7018 70.5587 55.9576 70.691 56.1932 70.8771C56.4288 71.0631 56.6273 71.3044 56.7906 71.601L55.6412 72.0685C55.5655 71.9412 55.4696 71.8356 55.3518 71.7501Z" fill="#5F6614"/>
<path d="M60.2705 67.1453L60.846 68.0535L58.2427 69.6891L58.9091 70.7414L61.2987 69.24L61.8305 70.0795L59.4409 71.581L60.2032 72.7842L62.862 71.1134L63.4375 72.0217L59.695 74.3728L56.5818 69.4628L60.2705 67.1453Z" fill="#5F6614"/>
<path d="M70 42C70 49.8767 66.6366 56.9833 61.2467 62H22.7499C17.3634 56.9833 14 49.8767 14 42C14 34.1233 17.3634 27.0167 22.7499 22H61.2484C66.6383 27.0167 70 34.1233 70 42Z" fill="#5F6614"/>
<path d="M23.1025 30.9692C23.1025 27.7467 24.7349 25.9503 27.7993 25.9503C30.8636 25.9503 32.496 27.7467 32.496 30.9692V32.6801H29.5174V30.7698C29.5174 29.4577 28.9739 28.8024 27.8851 28.8024C26.7963 28.8024 26.2528 29.4577 26.2528 30.7698V41.6923C26.2528 42.9759 26.7963 43.6312 27.8851 43.6312C28.9739 43.6312 29.5174 42.9759 29.5174 41.6923V37.7861H27.9423V34.934H32.496V41.4644C32.496 44.6869 30.8636 46.4833 27.7993 46.4833C24.7349 46.4833 23.1025 44.6869 23.1025 41.4644V30.9692Z" fill="white"/>
<path d="M34.5574 46.1966V26.2351H38.9966L41.0867 40.722L43.1767 26.2351H47.6159V46.1983H44.6374V31.0831L42.2899 46.1983H39.6546L37.3071 31.0831V46.1983H34.5574V46.1966Z" fill="white"/>
<path d="M49.9636 46.1966V26.2351H54.6031C57.7247 26.2351 59.2998 27.8891 59.2998 31.1685V33.1358C59.2998 36.4153 57.7247 38.0693 54.6031 38.0693H53.1138V46.1966H49.9636ZM53.1138 35.2171H54.6031C55.6347 35.2171 56.1496 34.7044 56.1496 33.3353V30.9691C56.1496 29.6 55.6347 29.0872 54.6031 29.0872H53.1138V35.2171Z" fill="white"/>
<path d="M23.5015 51.7987C23.5015 50.4882 24.1897 49.7291 25.4586 49.7291C26.7274 49.7291 27.4157 50.4866 27.4157 51.7987V52.6885H26.1603V51.7149C26.1603 51.1971 25.9432 50.9323 25.4956 50.9323C25.048 50.9323 24.8309 51.1971 24.8309 51.7149V56.417C24.8309 56.9349 25.048 57.1862 25.4956 57.1862C25.9432 57.1862 26.1603 56.9332 26.1603 56.417V55.1904H27.4157V56.3215C27.4157 57.632 26.7274 58.3911 25.4586 58.3911C24.1897 58.3911 23.5015 57.6336 23.5015 56.3215V51.7987Z" fill="white"/>
<path d="M28.1997 58.2687V49.8497H31.8228V51.0529H29.5274V53.2783H31.3516V54.4815H29.5274V57.0672H31.8228V58.2704H28.1997V58.2687Z" fill="white"/>
<path d="M32.5347 58.2687V49.8497H34.5036C35.8683 49.8497 36.4724 50.4748 36.4724 51.7869V52.3047C36.4724 53.1828 36.183 53.7358 35.6024 53.9654V53.9888C36.1948 54.1698 36.4842 54.7714 36.4842 55.7685V57.2482C36.4842 57.7056 36.533 58.0425 36.6289 58.2704H35.276C35.1918 58.0291 35.1548 57.6805 35.1548 57.2364V55.6964C35.1548 54.9273 34.9377 54.6625 34.3218 54.6625H33.8624V58.2704H32.5347V58.2687ZM33.8641 53.4576H34.3471C34.8788 53.4576 35.1447 53.2046 35.1447 52.5678V51.9176C35.1447 51.3395 34.9158 51.0512 34.4682 51.0512H33.8641V53.4576Z" fill="white"/>
<path d="M38.4061 58.2688V51.0513H37.0178V49.8481H41.1239V51.0513H39.7356V58.2688H38.4061Z" fill="white"/>
<path d="M41.7632 58.2687V49.8497H43.0926V58.2687H41.7632Z" fill="white"/>
<path d="M44.0823 58.2687V49.8497H47.5977V51.0529H45.4117V53.399H47.1265V54.6022H45.4117V58.2704H44.0823V58.2687Z" fill="white"/>
<path d="M48.2371 58.2687V49.8497H49.5665V58.2687H48.2371Z" fill="white"/>
<path d="M50.5559 58.2687V49.8497H54.179V51.0529H51.8836V53.2783H53.7078V54.4815H51.8836V57.0672H54.179V58.2704H50.5559V58.2687Z" fill="white"/>
<path d="M54.8909 58.2687V49.8497H56.9203C58.2363 49.8497 58.901 50.5468 58.901 51.931V56.1891C58.901 57.5716 58.2363 58.2704 56.9203 58.2704H54.8909V58.2687ZM56.2203 57.0672H56.8968C57.3444 57.0672 57.5733 56.7907 57.5733 56.2494V51.8707C57.5733 51.3294 57.3444 51.0529 56.8968 51.0529H56.2203V57.0672Z" fill="white"/>
<path d="M11.4991 53L12.4155 55.5446L15 55.6743L12.9807 57.3761L13.6623 60L11.4991 58.5089L9.33594 60L10.0176 57.3761L8 55.6743L10.5828 55.5446L11.4991 53Z" fill="#5F6614"/>
<path d="M72.4991 53L73.4155 55.5446L76 55.6743L73.9807 57.3761L74.6623 60L72.4991 58.5089L70.3359 60L71.0176 57.3761L69 55.6743L71.5828 55.5446L72.4991 53Z" fill="#5F6614"/>
</svg>
