<svg width="430" height="430" viewBox="0 0 430 430" fill="none" xmlns="http://www.w3.org/2000/svg">
<path d="M405 405L313.315 313.315M313.315 313.315C328.999 297.632 341.439 279.014 349.927 258.523C358.414 238.032 362.783 216.07 362.783 193.891C362.783 171.712 358.414 149.75 349.927 129.259C341.439 108.769 328.999 90.1501 313.315 74.4671C297.632 58.7841 279.014 46.3437 258.523 37.8561C238.032 29.3685 216.07 25 193.891 25C171.712 25 149.75 29.3685 129.259 37.8561C108.769 46.3437 90.1501 58.7841 74.4671 74.4671C42.7939 106.14 25 149.099 25 193.891C25 238.684 42.7939 281.642 74.4671 313.315C106.14 344.989 149.099 362.783 193.891 362.783C238.684 362.783 281.642 344.989 313.315 313.315Z" stroke="#CEDDBC" stroke-width="50" stroke-linecap="round" stroke-linejoin="round"/>
</svg>
